<svg width="20" height="20" viewBox="0 0 20 20" fill="none" xmlns="http://www.w3.org/2000/svg">
<g clip-path="url(#clip0_2505_125)">
<path d="M9.98738 1.53906C7.58556 1.53906 5.65193 2.50634 5.65193 3.70724V5.41634L9.99284 5.43361L9.97466 5.87452H3.48375C2.28375 5.87452 1.31738 7.80815 1.31738 10.2109C1.31738 12.6109 2.28375 14.5454 3.48466 14.5454H5.21829C5.21829 13.4527 5.28556 12.6254 5.44556 11.9863C5.60556 11.3472 5.86556 10.8891 6.24829 10.5827C7.01375 9.96997 8.14466 9.99361 9.77102 9.99361C11.6128 9.99361 12.7665 9.96906 13.4074 9.49361C13.7283 9.25725 13.9519 8.90452 14.1028 8.32634C14.2537 7.74725 14.3228 6.94997 14.3228 5.87452H14.7565C14.7565 6.96815 14.6892 7.79543 14.5219 8.43543C14.3547 9.07634 14.0765 9.53815 13.6665 9.84179C12.8437 10.4509 11.6128 10.4272 9.77102 10.4272C8.14466 10.4272 7.10829 10.45 6.5192 10.9209C6.22466 11.1572 6.01011 11.5118 5.86556 12.0918C5.72011 12.6718 5.65193 13.4709 5.65193 14.5454V16.7127C5.65193 17.9136 7.58557 18.8809 9.98829 18.8809C12.3892 18.8809 14.3228 17.9136 14.3228 16.7127V14.9863L10.0001 14.9872V14.5454H16.491C17.691 14.5454 18.6583 12.6118 18.6583 10.21C18.6583 7.80815 17.691 5.87452 16.4901 5.87452H14.3228V3.70724C14.3228 2.50634 12.3892 1.53997 9.98738 1.53997V1.53906ZM7.59647 2.90543H7.60284C7.81526 2.90615 8.01871 2.99113 8.16853 3.14172C8.31835 3.2923 8.40229 3.49618 8.40193 3.7086C8.40157 3.92102 8.31693 4.12462 8.1666 4.27469C8.01627 4.42477 7.81253 4.50906 7.60011 4.50906C7.38769 4.50906 7.18395 4.42477 7.03362 4.27469C6.88329 4.12462 6.79865 3.92102 6.79829 3.7086C6.79793 3.49618 6.88188 3.2923 7.03169 3.14172C7.18151 2.99113 7.38497 2.90615 7.59738 2.90543H7.59647ZM12.3665 15.9109H12.3719C12.5843 15.9116 12.7878 15.9966 12.9376 16.1472C13.0874 16.2978 13.1714 16.5016 13.171 16.7141C13.1707 16.9265 13.086 17.1301 12.9357 17.2801C12.7854 17.4302 12.5816 17.5145 12.3692 17.5145C12.1568 17.5145 11.953 17.4302 11.8027 17.2801C11.6524 17.1301 11.5677 16.9265 11.5674 16.7141C11.567 16.5016 11.651 16.2978 11.8008 16.1472C11.9506 15.9966 12.1541 15.9116 12.3665 15.9109Z" fill="#C2C2C2"/>
<g clip-path="url(#clip1_2505_125)">
<path d="M17.8125 0H2.1875C0.979377 0 0 0.979377 0 2.1875V17.8125C0 19.0206 0.979377 20 2.1875 20H17.8125C19.0206 20 20 19.0206 20 17.8125V2.1875C20 0.979377 19.0206 0 17.8125 0Z" fill="#C2C2C2"/>
<path d="M14.5607 7.35914V12.5331C14.5607 14.3158 14.4303 15.1709 14.039 15.9101C13.6766 16.6204 13.1983 17.0695 12.2128 17.5624L10.1402 16.5768C11.1258 16.113 11.604 15.7074 11.9084 15.0839C12.2273 14.4463 12.3288 13.7071 12.3288 11.765V7.35914H14.5607ZM11.01 3.91235V14.2435C9.86507 14.4608 9.02444 14.5478 8.11143 14.5478C5.38663 14.5478 3.96631 13.316 3.96631 10.9535C3.96631 8.67802 5.47368 7.19982 7.807 7.19982C8.16931 7.19982 8.44466 7.22871 8.77807 7.31567V3.91235H11.01ZM8.02448 8.99685C6.894 8.99685 6.24176 9.69256 6.24176 10.9099C6.24176 12.0984 6.86502 12.7506 8.00999 12.7506C8.25626 12.7506 8.45924 12.7361 8.77807 12.6927V9.11269C8.51721 9.02583 8.29983 8.99685 8.02448 8.99685ZM14.5607 3.92423V6.21417H12.3288V3.92423H14.5607Z" fill="#1A1A1A"/>
</g>
</g>
<defs>
<clipPath id="clip0_2505_125">
<rect width="20" height="20" fill="white"/>
</clipPath>
<clipPath id="clip1_2505_125">
<rect width="20" height="20" fill="white"/>
</clipPath>
</defs>
</svg>
