<svg width="21" height="20" viewBox="0 0 21 20" fill="none" xmlns="http://www.w3.org/2000/svg">
<path fill-rule="evenodd" clip-rule="evenodd" d="M10.3259 0C4.62341 0 0 4.58984 0 10.2528C0 14.7828 2.95836 18.6259 7.06117 19.9819C7.57746 20.0767 7.76677 19.7597 7.76677 19.4889C7.76677 19.2445 7.75731 18.4371 7.753 17.5801C4.88069 18.2004 4.27405 16.3703 4.27405 16.3703C3.80422 15.1853 3.12788 14.87 3.12788 14.87C2.1908 14.2335 3.19844 14.2471 3.19844 14.2471C4.23533 14.3197 4.78088 15.304 4.78088 15.304C5.7016 16.871 7.19627 16.4182 7.7857 16.1559C7.87863 15.4928 8.14625 15.0409 8.44139 14.7845C6.14819 14.5257 3.7371 13.6465 3.7371 9.71795C3.7371 8.59869 4.14067 7.68362 4.80153 6.96593C4.69397 6.70704 4.34031 5.66467 4.90134 4.25235C4.90134 4.25235 5.76872 3.97723 7.74182 5.30326C8.5653 5.07599 9.44817 4.96236 10.3259 4.95808C11.2036 4.96236 12.0873 5.07599 12.9125 5.30326C14.883 3.97638 15.7495 4.25235 15.7495 4.25235C16.3114 5.66467 15.9578 6.70704 15.8511 6.96593C16.5128 7.68362 16.9138 8.59869 16.9138 9.71795C16.9138 13.6559 14.4984 14.5231 12.1991 14.7769C12.5692 15.0947 12.8996 15.7193 12.8996 16.6753C12.8996 18.0475 12.8875 19.1514 12.8875 19.4889C12.8875 19.7614 13.0734 20.0818 13.5966 19.981C17.6977 18.6234 20.6526 14.782 20.6526 10.2537C20.6517 4.59069 16.0283 0 10.3259 0Z" fill="#1A1A1A"/>
<path d="M3.91077 14.7213C3.8884 14.7725 3.80751 14.7879 3.73351 14.7529C3.65865 14.7196 3.61648 14.6495 3.64058 14.5991C3.66295 14.547 3.74384 14.5324 3.8187 14.5675C3.89356 14.5999 3.93659 14.67 3.91077 14.7213Z" fill="#1A1A1A"/>
<path d="M4.32911 15.1844C4.28006 15.2297 4.18369 15.2083 4.11829 15.1374C4.05031 15.0656 4.03827 14.9699 4.08818 14.9246C4.13894 14.8794 4.23188 14.9007 4.29986 14.9725C4.36783 15.0434 4.38074 15.1382 4.32911 15.1844Z" fill="#1A1A1A"/>
<path d="M4.73665 15.7747C4.67298 15.8183 4.56972 15.7773 4.50604 15.6867C4.44236 15.5953 4.44236 15.4859 4.50776 15.4424C4.57144 15.3988 4.67384 15.4381 4.73837 15.5287C4.80119 15.6209 4.80119 15.7303 4.73665 15.7747Z" fill="#1A1A1A"/>
<path d="M5.2938 16.3454C5.23701 16.4078 5.11654 16.3907 5.02877 16.3061C4.93842 16.2232 4.91346 16.1062 4.97026 16.0438C5.02791 15.9814 5.14924 15.9994 5.23787 16.0831C5.32736 16.166 5.35403 16.2839 5.2938 16.3454Z" fill="#1A1A1A"/>
<path d="M6.06393 16.6761C6.03898 16.7564 5.92281 16.7931 5.80579 16.759C5.68876 16.7239 5.61218 16.63 5.63627 16.5488C5.66036 16.4676 5.77739 16.43 5.89528 16.4668C6.01144 16.5009 6.08803 16.5949 6.06393 16.6761Z" fill="#1A1A1A"/>
<path d="M6.90886 16.7375C6.91144 16.8221 6.81248 16.8921 6.68943 16.8938C6.56638 16.8964 6.4657 16.828 6.46484 16.7452C6.46484 16.6597 6.56208 16.5905 6.68513 16.588C6.80818 16.5854 6.90886 16.6537 6.90886 16.7375Z" fill="#1A1A1A"/>
<path d="M7.69583 16.6053C7.71046 16.6873 7.62527 16.7727 7.50308 16.795C7.38347 16.8172 7.27247 16.7659 7.25698 16.6839C7.24235 16.5993 7.32926 16.5147 7.44887 16.4925C7.5702 16.4711 7.68034 16.5207 7.69583 16.6053Z" fill="#1A1A1A"/>
</svg>
