<svg width="20" height="20" viewBox="0 0 20 20" fill="none" xmlns="http://www.w3.org/2000/svg">
<g clip-path="url(#clip0_2508_229)">
<mask id="mask0_2508_229" style="mask-type:luminance" maskUnits="userSpaceOnUse" x="0" y="0" width="20" height="20">
<path d="M20 0H0V20H20V0Z" fill="white"/>
</mask>
<g mask="url(#mask0_2508_229)">
<path d="M4.23389 0H5.13533V0.890625H5.95994V0H6.86142V2.69703H5.95998V1.79391H5.13537V2.69703H4.23392L4.23389 0Z" fill="#C2C2C2"/>
<path d="M8.04702 0.894375H7.25342V0H9.7425V0.894375H8.9485V2.69703H8.04705L8.04702 0.894375Z" fill="#C2C2C2"/>
<path d="M10.1372 0H11.0772L11.6554 0.947658L12.233 0H13.1733V2.69703H12.2755V1.36023L11.6554 2.31918H11.6399L11.0192 1.36023V2.69703H10.1372V0Z" fill="#C2C2C2"/>
<path d="M13.6221 0H14.5238V1.80555H15.7915V2.69703H13.6221V0Z" fill="#C2C2C2"/>
<path fill-rule="evenodd" clip-rule="evenodd" d="M4.20494 18.3937L2.5 3.93054H17.5L15.7939 18.3915L9.99142 20.0001L4.20494 18.3937ZM7.65287 10.4773L7.49076 8.66081H14.2786L14.4374 6.88696H5.55217L6.0306 12.2511H12.1782L11.9723 14.5516L9.99392 15.0856L9.9925 15.0862L8.01698 14.5528L7.89069 13.1381H6.11002L6.35854 15.9233L9.99217 16.932L13.6304 15.9232L14.0739 10.9536L14.1172 10.4773H7.65287Z" fill="#C2C2C2"/>
</g>
</g>
<defs>
<clipPath id="clip0_2508_229">
<rect width="20" height="20" fill="white"/>
</clipPath>
</defs>
</svg>
