<svg width="20" height="20" viewBox="0 0 20 20" fill="none" xmlns="http://www.w3.org/2000/svg">
<path fill-rule="evenodd" clip-rule="evenodd" d="M4.97631 4.30956C6.27806 3.00781 8.38861 3.00781 9.69035 4.30956L12.0474 6.66659C13.3491 7.96836 13.3491 10.0789 12.0474 11.3806C11.7219 11.7061 11.1943 11.7061 10.8689 11.3806C10.5434 11.0552 10.5434 10.5275 10.8689 10.2021C11.5198 9.55127 11.5198 8.49594 10.8689 7.8451L8.51185 5.48807C7.86097 4.83721 6.8057 4.83721 6.15482 5.48807C5.50395 6.13895 5.50395 7.19422 6.15482 7.8451L6.74408 8.43436C7.06952 8.75977 7.06951 9.28744 6.74408 9.61286C6.41865 9.93827 5.891 9.93827 5.56557 9.61286L4.97631 9.02361C3.67456 7.72186 3.67456 5.61131 4.97631 4.30956ZM9.69035 7.84511C10.0158 8.17052 10.0158 8.69819 9.69035 9.02361C9.03952 9.67452 9.03952 10.7298 9.69035 11.3806L12.0474 13.7377C12.6983 14.3885 13.7535 14.3885 14.4044 13.7377C15.0553 13.0868 15.0553 12.0315 14.4044 11.3806L13.8152 10.7914C13.4897 10.4659 13.4897 9.93827 13.8152 9.61286C14.1406 9.28744 14.6682 9.28744 14.9937 9.61286L15.5829 10.2021C16.8847 11.5039 16.8847 13.6144 15.5829 14.9162C14.2812 16.2179 12.1706 16.2179 10.8689 14.9162L8.51185 12.5592C7.2101 11.2574 7.2101 9.14686 8.51185 7.84511C8.83727 7.51966 9.36494 7.51966 9.69035 7.84511Z" fill="#1A1A1A"/>
</svg>
