<svg width="82" height="32" viewBox="0 0 82 32" fill="none" xmlns="http://www.w3.org/2000/svg">
<path d="M0.858 11.18H5.668L6.63 16.952V26H1.794V16.224L0.858 11.18ZM12.168 10.764C13.5893 10.764 14.794 11.05 15.782 11.622C16.7873 12.194 17.55 13 18.07 14.04C18.6073 15.0627 18.876 16.2933 18.876 17.732V26H14.04V18.46C14.04 17.2293 13.7367 16.302 13.13 15.678C12.5233 15.0367 11.6567 14.716 10.53 14.716C9.73267 14.716 9.03933 14.8893 8.45 15.236C7.86067 15.5653 7.41 16.042 7.098 16.666C6.786 17.2727 6.63 18.0007 6.63 18.85L5.096 18.044C5.28667 16.4667 5.71133 15.1407 6.37 14.066C7.046 12.9913 7.878 12.1767 8.866 11.622C9.87133 11.05 10.972 10.764 12.168 10.764ZM21.7963 10.972L24.1883 11.466L26.6063 10.972V26H21.7963V10.972ZM24.2143 9.62C23.365 9.62 22.6717 9.40333 22.1343 8.97C21.597 8.51933 21.3283 7.93 21.3283 7.202C21.3283 6.45667 21.597 5.86733 22.1343 5.434C22.6717 5.00067 23.365 4.784 24.2143 4.784C25.081 4.784 25.7743 5.00067 26.2943 5.434C26.8143 5.86733 27.0743 6.45667 27.0743 7.202C27.0743 7.93 26.8143 8.51933 26.2943 8.97C25.7743 9.40333 25.081 9.62 24.2143 9.62ZM29.7182 5.98H34.5282V26H29.7182V5.98ZM51.1081 26L50.4581 20.618L51.1601 18.59L50.4581 16.588L51.1081 11.18H56.1261L55.2161 18.59L56.1261 26H51.1081ZM52.3041 18.59C52.0441 20.1673 51.5501 21.5453 50.8221 22.724C50.0941 23.8853 49.1754 24.7953 48.0661 25.454C46.9567 26.0953 45.7087 26.416 44.3221 26.416C42.8661 26.416 41.5834 26.0867 40.4741 25.428C39.3821 24.7693 38.5241 23.8593 37.9001 22.698C37.2761 21.5193 36.9641 20.15 36.9641 18.59C36.9641 17.03 37.2761 15.6693 37.9001 14.508C38.5241 13.3293 39.3821 12.4107 40.4741 11.752C41.5834 11.0933 42.8661 10.764 44.3221 10.764C45.7087 10.764 46.9567 11.0933 48.0661 11.752C49.1754 12.3933 50.0941 13.2947 50.8221 14.456C51.5674 15.6173 52.0614 16.9953 52.3041 18.59ZM41.8521 18.59C41.8521 19.3873 42.0167 20.098 42.3461 20.722C42.6754 21.3287 43.1261 21.814 43.6981 22.178C44.2874 22.5247 44.9634 22.698 45.7261 22.698C46.4887 22.698 47.2081 22.5247 47.8841 22.178C48.5774 21.814 49.1841 21.3287 49.7041 20.722C50.2241 20.098 50.6141 19.3873 50.8741 18.59C50.6141 17.7927 50.2241 17.0907 49.7041 16.484C49.1841 15.86 48.5774 15.3747 47.8841 15.028C47.2081 14.664 46.4887 14.482 45.7261 14.482C44.9634 14.482 44.2874 14.664 43.6981 15.028C43.1261 15.3747 42.6754 15.86 42.3461 16.484C42.0167 17.0907 41.8521 17.7927 41.8521 18.59ZM63.3906 30.706C62.3506 30.706 61.4233 30.576 60.6086 30.316C59.8113 30.056 59.0313 29.666 58.2686 29.146V25.74C59.0486 26.2427 59.7766 26.598 60.4526 26.806C61.146 27.0313 61.9 27.144 62.7146 27.144C63.4426 27.144 64.0753 26.988 64.6126 26.676C65.1673 26.364 65.6266 25.792 65.9906 24.96L71.9186 11.18H77.0406L69.7866 26.468C69.3013 27.508 68.7206 28.34 68.0446 28.964C67.3686 29.588 66.632 30.03 65.8346 30.29C65.0546 30.5673 64.24 30.706 63.3906 30.706ZM63.9626 24.83L57.5406 11.18H62.8446L68.6166 24.83H63.9626Z" fill="white"/>
<path d="M78.647 26.26C78.127 26.26 77.6503 26.1387 77.217 25.896C76.801 25.6533 76.4716 25.324 76.229 24.908C75.9863 24.4747 75.865 23.998 75.865 23.478C75.865 22.958 75.9863 22.49 76.229 22.074C76.4716 21.658 76.801 21.3287 77.217 21.086C77.6503 20.826 78.127 20.696 78.647 20.696C79.167 20.696 79.635 20.826 80.051 21.086C80.467 21.3287 80.7963 21.658 81.039 22.074C81.2816 22.49 81.403 22.958 81.403 23.478C81.403 23.998 81.2816 24.4747 81.039 24.908C80.7963 25.324 80.467 25.6533 80.051 25.896C79.635 26.1387 79.167 26.26 78.647 26.26Z" fill="#FF7800"/>
<ellipse cx="24.5" cy="7" rx="3.5" ry="3" fill="#1A1A1A"/>
<path d="M28 6C28 7.65685 26.433 9 24.5 9C22.567 9 21 7.65685 21 6C21 4.34315 22.567 3 24.5 3C26.433 3 28 4.34315 28 6Z" fill="#FF7800"/>
</svg>
