<svg width="20" height="20" viewBox="0 0 20 20" fill="none" xmlns="http://www.w3.org/2000/svg">
<g clip-path="url(#clip0_2508_210)">
<g clip-path="url(#clip1_2508_210)">
<path d="M14.2735 0C13.4965 0.00578037 12.7239 0.118791 11.9777 0.335833L11.9252 0.3525C11.4546 0.269323 10.9781 0.223347 10.5002 0.215C9.51854 0.198333 8.67521 0.436667 7.99521 0.833333C7.32521 0.600833 5.93521 0.2 4.47021 0.28C3.45021 0.335833 2.33688 0.645833 1.51188 1.51667C0.689377 2.3875 0.254377 3.735 0.346044 5.56833C0.371044 6.07417 0.51521 6.89917 0.754377 7.9675C0.993544 9.03583 1.32938 10.2867 1.74854 11.4275C2.16771 12.5692 2.62688 13.5942 3.34438 14.2908C3.70271 14.64 4.19604 14.9333 4.77771 14.9092C5.18604 14.8925 5.55521 14.7133 5.87354 14.4492C6.02854 14.6533 6.19438 14.7425 6.34521 14.825C6.53521 14.9292 6.72021 15 6.91188 15.0467C7.25604 15.1325 7.84521 15.2475 8.53521 15.13C8.77021 15.0908 9.01771 15.0142 9.26438 14.905C9.27354 15.18 9.28438 15.4492 9.29521 15.7217C9.32938 16.585 9.35104 17.3825 9.61021 18.0817C9.65188 18.1958 9.76604 18.7842 10.216 19.3033C10.666 19.8233 11.5477 20.1475 12.5519 19.9325C13.2602 19.7808 14.161 19.5075 14.7594 18.6558C15.351 17.8142 15.6177 16.6067 15.6702 14.6483C15.6835 14.5425 15.6994 14.4525 15.716 14.3683L15.8569 14.3808H15.8735C16.6294 14.415 17.4494 14.3075 18.1344 13.9892C18.741 13.7083 19.2002 13.4242 19.5344 12.92C19.6177 12.795 19.7094 12.6442 19.7344 12.3842C19.7594 12.1242 19.6102 11.7175 19.3627 11.53C18.8669 11.1533 18.5552 11.2967 18.221 11.3658C17.8919 11.4386 17.5564 11.4794 17.2194 11.4875C18.1827 9.865 18.8735 8.14167 19.2677 6.61667C19.501 5.71667 19.6319 4.88667 19.6427 4.16083C19.6535 3.435 19.5944 2.7925 19.1594 2.23667C17.8002 0.5 15.8894 0.02 14.411 0.00333333C14.3652 0.0025 14.3194 0.00166667 14.2735 0.0025V0ZM14.2344 0.533333C15.6327 0.52 17.4194 0.9125 18.7019 2.55167C18.9902 2.92 19.076 3.45833 19.066 4.12167C19.0552 4.78417 18.9327 5.5775 18.7085 6.44667C18.2735 8.13 17.4519 10.0925 16.2944 11.8533C16.3353 11.8824 16.3795 11.9064 16.426 11.925C16.6677 12.025 17.2185 12.1108 18.3177 11.885C18.5944 11.8267 18.7969 11.7875 19.0069 11.9475C19.0579 11.9908 19.0982 12.0452 19.1247 12.1067C19.1511 12.1681 19.163 12.2349 19.1594 12.3017C19.1482 12.4028 19.1108 12.4993 19.051 12.5817C18.8385 12.9008 18.4194 13.2033 17.8819 13.4525C17.406 13.6742 16.7235 13.79 16.1185 13.7967C15.8152 13.8 15.5352 13.7767 15.2977 13.7025L15.2827 13.6967C15.191 14.58 14.9802 16.3242 14.8427 17.12C14.7327 17.7617 14.5402 18.2717 14.1727 18.6533C13.806 19.035 13.2869 19.265 12.5885 19.415C11.7235 19.6008 11.0927 19.4008 10.686 19.0583C10.2802 18.7167 10.0944 18.2633 9.98271 17.9858C9.90604 17.7942 9.86604 17.5458 9.82771 17.2142C9.78938 16.8825 9.76104 16.4767 9.74188 16.0192C9.71635 15.3186 9.70801 14.6176 9.71688 13.9167C9.35554 14.2476 8.90653 14.4675 8.42354 14.55C7.84938 14.6475 7.33688 14.5517 7.03104 14.475C6.88028 14.4371 6.73474 14.3809 6.59771 14.3075C6.45604 14.2317 6.32104 14.1458 6.23104 13.9767C6.17816 13.8798 6.16133 13.7673 6.18354 13.6592C6.21171 13.5496 6.27564 13.4525 6.36521 13.3833C6.53021 13.2492 6.74854 13.1742 7.07771 13.1058C7.67688 12.9825 7.88604 12.8983 8.01354 12.7975C8.12188 12.7108 8.24438 12.5358 8.46104 12.2792C8.46001 12.2678 8.45917 12.2564 8.45854 12.245C8.07078 12.2341 7.69106 12.1319 7.35021 11.9467C7.22521 12.0783 6.58688 12.7533 5.80854 13.69C5.48104 14.0817 5.11938 14.3067 4.73771 14.3225C4.35604 14.3392 4.01104 14.1467 3.71771 13.8625C3.13188 13.2933 2.66438 12.3142 2.25688 11.2075C1.85021 10.1008 1.51938 8.86833 1.28438 7.81833C1.04854 6.76833 0.909377 5.92167 0.889377 5.51333C0.801877 3.77833 1.20771 2.60917 1.90354 1.87167C2.60021 1.13417 3.55521 0.855 4.48604 0.801667C6.15688 0.705833 7.74354 1.28833 8.06438 1.41333C8.68271 0.993333 9.47938 0.731667 10.4744 0.748333C10.9467 0.754959 11.4168 0.815915 11.8752 0.93L11.8919 0.9225C12.0937 0.851572 12.2993 0.792034 12.5077 0.744167C13.0737 0.612129 13.6524 0.541995 14.2335 0.535L14.2344 0.533333ZM14.361 1.09167H14.2394C13.7619 1.09833 13.2863 1.15192 12.8194 1.25167C13.8577 1.71167 14.6419 2.42 15.1944 3.12667C15.5782 3.61595 15.8954 4.15398 16.1377 4.72667C16.2294 4.94667 16.291 5.1325 16.326 5.27667C16.3435 5.34917 16.3552 5.41 16.3594 5.47333C16.361 5.505 16.3627 5.5375 16.3494 5.59333C16.3494 5.59583 16.3452 5.60167 16.3444 5.60417C16.3694 6.33417 16.1885 6.82917 16.1669 7.52583C16.1502 8.03083 16.2794 8.62417 16.311 9.27167C16.341 9.88 16.2677 10.5483 15.8727 11.2042C15.906 11.2442 15.936 11.2842 15.9677 11.3242C17.0127 9.67833 17.766 7.8575 18.1677 6.305C18.3827 5.46917 18.4969 4.71167 18.5069 4.11167C18.5152 3.51167 18.4035 3.07667 18.261 2.895C17.1427 1.465 15.6294 1.10167 14.361 1.09167ZM10.3694 1.305C9.38438 1.3075 8.67771 1.605 8.14188 2.05083C7.58938 2.51167 7.21854 3.1425 6.97521 3.78833C6.68604 4.555 6.58688 5.29667 6.54771 5.8L6.55854 5.79333C6.85604 5.62667 7.24688 5.46 7.66521 5.36333C8.08354 5.2675 8.53438 5.2375 8.94271 5.39583C9.35104 5.55417 9.68854 5.92667 9.81104 6.49167C10.3977 9.20583 9.62854 10.215 9.34521 10.9767C9.23772 11.2527 9.14564 11.5346 9.06938 11.8208C9.10521 11.8125 9.14104 11.8025 9.17688 11.7992C9.37688 11.7825 9.53354 11.8492 9.62688 11.8892C9.91188 12.0075 10.1077 12.2558 10.2135 12.5392C10.241 12.6133 10.261 12.6933 10.2727 12.7758C10.285 12.8097 10.2907 12.8456 10.2894 12.8817C10.2578 13.9198 10.2614 14.9588 10.3002 15.9967C10.3194 16.445 10.3477 16.84 10.3835 17.1517C10.4194 17.4625 10.4702 17.6992 10.5027 17.7792C10.6094 18.0458 10.7652 18.395 11.0469 18.6325C11.3285 18.8692 11.7327 19.0275 12.471 18.8692C13.111 18.7317 13.506 18.5408 13.7702 18.2667C14.0335 17.9925 14.191 17.6108 14.2919 17.0267C14.4427 16.1517 14.746 13.6142 14.7827 13.1367C14.766 12.7767 14.8194 12.5 14.9344 12.2892C15.0527 12.0725 15.236 11.94 15.3944 11.8683C15.4735 11.8325 15.5477 11.8083 15.6085 11.7908C15.5441 11.6983 15.4766 11.608 15.406 11.52C15.1778 11.2431 14.9908 10.9347 14.851 10.6042C14.7841 10.4677 14.7127 10.3334 14.6369 10.2017C14.526 10.0017 14.386 9.75167 14.2394 9.47083C13.946 8.90833 13.6269 8.22667 13.461 7.5625C13.296 6.89917 13.2719 6.2125 13.6952 5.72833C14.0702 5.29833 14.7285 5.12 15.7169 5.22C15.6877 5.1325 15.6702 5.06 15.621 4.94333C15.3976 4.41741 15.1059 3.92316 14.7535 3.47333C13.916 2.4025 12.5602 1.34083 10.4652 1.30667H10.3694V1.305ZM4.83438 1.34833C4.72854 1.34833 4.62271 1.35167 4.51771 1.3575C3.67604 1.40583 2.88021 1.65 2.31104 2.25333C1.74104 2.85667 1.36604 3.84583 1.44771 5.48333C1.46354 5.79333 1.59854 6.66167 1.83021 7.69333C2.06104 8.725 2.38854 9.93917 2.78188 11.0117C3.17604 12.0842 3.65354 13.0175 4.10688 13.4592C4.33521 13.68 4.53354 13.7692 4.71354 13.7617C4.89438 13.7533 5.11188 13.6492 5.37771 13.33C5.86238 12.7454 6.36541 12.1762 6.88604 11.6233C6.51663 11.3026 6.23392 10.894 6.06396 10.4353C5.894 9.9765 5.84227 9.48234 5.91354 8.99833C5.99938 8.3825 6.01104 7.80667 6.00104 7.35167C5.99104 6.90833 5.95938 6.61333 5.95938 6.42917C5.95923 6.42389 5.95923 6.41861 5.95938 6.41333V6.40917L5.95854 6.40417C5.95805 5.44483 6.125 4.49193 6.45188 3.59C6.68521 2.97 7.03271 2.34 7.55354 1.83C7.04188 1.66167 6.13354 1.405 5.15021 1.35667C5.04474 1.35125 4.93999 1.34847 4.83438 1.34833ZM15.166 5.75C14.6002 5.7575 14.2827 5.90333 14.116 6.09417C13.8802 6.365 13.8577 6.84 14.0044 7.425C14.1502 8.01083 14.4519 8.66583 14.7352 9.21C14.8769 9.4825 15.0144 9.7275 15.1252 9.92667C15.2369 10.1267 15.3185 10.2683 15.3685 10.3892C15.4144 10.5008 15.4652 10.5992 15.5169 10.6908C15.736 10.2283 15.7752 9.77417 15.7527 9.30083C15.7235 8.715 15.5877 8.11583 15.6077 7.50917C15.6302 6.8 15.7702 6.33833 15.7827 5.79C15.5782 5.76351 15.3722 5.75015 15.166 5.75ZM8.30438 5.84583C8.13152 5.84745 7.95936 5.86813 7.79104 5.9075C7.45557 5.98901 7.13245 6.11483 6.83021 6.28167C6.72797 6.33651 6.63067 6.40008 6.53938 6.47167L6.52104 6.48833C6.52604 6.61 6.55021 6.905 6.56021 7.33917C6.57021 7.81417 6.55854 8.42 6.46688 9.07583C6.26771 10.5008 7.30188 11.6808 8.51688 11.6825C8.58771 11.39 8.70438 11.0933 8.82104 10.7808C9.15938 9.86917 9.82521 9.20417 9.26438 6.60917C9.17271 6.18417 8.99104 6.0125 8.74104 5.91583C8.60092 5.86627 8.45297 5.84256 8.30438 5.84583ZM14.9019 6.01583H14.9435C14.9985 6.0175 15.0494 6.02333 15.0935 6.03417C15.1385 6.04417 15.1769 6.05917 15.2085 6.08C15.2248 6.09006 15.2387 6.10342 15.2495 6.11921C15.2603 6.135 15.2676 6.15287 15.271 6.17167L15.2702 6.17833C15.2718 6.21789 15.2617 6.25705 15.241 6.29083C15.2165 6.33657 15.1856 6.37865 15.1494 6.41583C15.0648 6.50892 14.9516 6.57111 14.8277 6.5925C14.7071 6.60707 14.5854 6.5765 14.486 6.50667C14.4454 6.4793 14.4089 6.44618 14.3777 6.40833C14.3507 6.3786 14.3326 6.34196 14.3252 6.3025C14.3235 6.28327 14.3257 6.2639 14.3317 6.24555C14.3377 6.22721 14.3474 6.21029 14.3602 6.19583C14.3876 6.16476 14.4207 6.13929 14.4577 6.12083C14.5377 6.07583 14.646 6.0425 14.7685 6.02417C14.8144 6.0175 14.8594 6.01417 14.9019 6.01333V6.01583ZM8.38521 6.15583C8.42938 6.15583 8.47604 6.16 8.52354 6.16667C8.65104 6.18417 8.76438 6.21833 8.85104 6.26833C8.89331 6.2904 8.93094 6.32039 8.96188 6.35667C8.97872 6.37591 8.99141 6.39843 8.99916 6.42281C9.0069 6.44718 9.00953 6.47289 9.00688 6.49833C8.99887 6.54625 8.97716 6.59082 8.94438 6.62667C8.91028 6.66852 8.87012 6.70504 8.82521 6.735C8.71683 6.81178 8.5837 6.84536 8.45188 6.82917C8.31715 6.80702 8.19384 6.74008 8.10188 6.63917C8.06275 6.59853 8.02964 6.55251 8.00354 6.5025C7.97608 6.4585 7.96405 6.4066 7.96938 6.355C7.98188 6.265 8.05604 6.21833 8.12854 6.1925C8.21113 6.16611 8.29779 6.15482 8.38438 6.15917L8.38521 6.15583ZM15.9352 12.275L15.9327 12.2758C15.8102 12.32 15.7094 12.3383 15.6244 12.3758C15.5384 12.4089 15.4676 12.4724 15.4252 12.5542C15.3727 12.65 15.3277 12.82 15.341 13.1092C15.3787 13.1351 15.4204 13.1548 15.4644 13.1675C15.6069 13.2108 15.846 13.2392 16.1127 13.235C16.6444 13.2292 17.2985 13.105 17.646 12.9433C17.9311 12.8109 18.1957 12.6383 18.4319 12.4308C17.271 12.6708 16.6144 12.6067 16.2119 12.4408C16.1119 12.3992 16.0187 12.3439 15.9352 12.275ZM9.24271 12.3533H9.22521C9.18104 12.3575 9.11688 12.3725 8.99271 12.51C8.70271 12.835 8.60104 13.0392 8.36188 13.23C8.12271 13.42 7.81188 13.5217 7.19104 13.6492C6.99438 13.6892 6.88188 13.7333 6.80688 13.7692C6.83104 13.7892 6.82854 13.7942 6.86521 13.8133C6.95604 13.8633 7.07271 13.9075 7.16688 13.9317C7.43354 13.9983 7.87188 14.0758 8.32938 13.9983C8.78688 13.92 9.26271 13.7008 9.66854 13.1317C9.73854 13.0333 9.74604 12.8883 9.68854 12.7325C9.63021 12.5767 9.50271 12.4425 9.41271 12.405C9.35916 12.3792 9.30173 12.3623 9.24271 12.355V12.3533Z" fill="#C2C2C2"/>
</g>
</g>
<defs>
<clipPath id="clip0_2508_210">
<rect width="20" height="20" fill="white"/>
</clipPath>
<clipPath id="clip1_2508_210">
<rect width="20" height="20" fill="white"/>
</clipPath>
</defs>
</svg>
