<svg width="20" height="20" viewBox="0 0 20 20" fill="none" xmlns="http://www.w3.org/2000/svg">
<path d="M9.98738 1.53906C7.58556 1.53906 5.65193 2.50634 5.65193 3.70724V5.41634L9.99284 5.43361L9.97466 5.87452H3.48375C2.28375 5.87452 1.31738 7.80815 1.31738 10.2109C1.31738 12.6109 2.28375 14.5454 3.48466 14.5454H5.21829C5.21829 13.4527 5.28556 12.6254 5.44556 11.9863C5.60556 11.3472 5.86556 10.8891 6.24829 10.5827C7.01375 9.96997 8.14466 9.99361 9.77102 9.99361C11.6128 9.99361 12.7665 9.96906 13.4074 9.49361C13.7283 9.25725 13.9519 8.90452 14.1028 8.32634C14.2537 7.74725 14.3228 6.94997 14.3228 5.87452H14.7565C14.7565 6.96815 14.6892 7.79543 14.5219 8.43543C14.3547 9.07634 14.0765 9.53815 13.6665 9.84179C12.8437 10.4509 11.6128 10.4272 9.77102 10.4272C8.14466 10.4272 7.10829 10.45 6.5192 10.9209C6.22466 11.1572 6.01011 11.5118 5.86556 12.0918C5.72011 12.6718 5.65193 13.4709 5.65193 14.5454V16.7127C5.65193 17.9136 7.58557 18.8809 9.98829 18.8809C12.3892 18.8809 14.3228 17.9136 14.3228 16.7127V14.9863L10.0001 14.9872V14.5454H16.491C17.691 14.5454 18.6583 12.6118 18.6583 10.21C18.6583 7.80815 17.691 5.87452 16.4901 5.87452H14.3228V3.70724C14.3228 2.50634 12.3892 1.53997 9.98738 1.53997V1.53906ZM7.59647 2.90543H7.60284C7.81526 2.90615 8.01871 2.99113 8.16853 3.14172C8.31835 3.2923 8.40229 3.49618 8.40193 3.7086C8.40157 3.92102 8.31693 4.12462 8.1666 4.27469C8.01627 4.42477 7.81253 4.50906 7.60011 4.50906C7.38769 4.50906 7.18395 4.42477 7.03362 4.27469C6.88329 4.12462 6.79865 3.92102 6.79829 3.7086C6.79793 3.49618 6.88188 3.2923 7.03169 3.14172C7.18151 2.99113 7.38497 2.90615 7.59738 2.90543H7.59647ZM12.3665 15.9109H12.3719C12.5843 15.9116 12.7878 15.9966 12.9376 16.1472C13.0874 16.2978 13.1714 16.5016 13.171 16.7141C13.1707 16.9265 13.086 17.1301 12.9357 17.2801C12.7854 17.4302 12.5816 17.5145 12.3692 17.5145C12.1568 17.5145 11.953 17.4302 11.8027 17.2801C11.6524 17.1301 11.5677 16.9265 11.5674 16.7141C11.567 16.5016 11.651 16.2978 11.8008 16.1472C11.9506 15.9966 12.1541 15.9116 12.3665 15.9109Z" fill="#C2C2C2"/>
</svg>
