<svg width="18" height="10" viewBox="0 0 18 10" fill="none" xmlns="http://www.w3.org/2000/svg">
<path fill-rule="evenodd" clip-rule="evenodd" d="M8.99984 0.0300293C6.77734 0.0300293 5.389 1.1342 4.83317 3.34336C5.6665 2.2392 6.639 1.82503 7.74984 2.10086C8.384 2.25836 8.83734 2.71586 9.33817 3.2217C10.1557 4.04586 11.1015 5.00003 13.1665 5.00003C15.389 5.00003 16.7773 3.89586 17.3332 1.6867C16.4998 2.79086 15.5282 3.20503 14.4165 2.9292C13.7823 2.7717 13.329 2.3142 12.8273 1.80836C12.0107 0.983363 11.0657 0.0300293 8.99984 0.0300293ZM4.83317 5.00003C2.61067 5.00003 1.22234 6.1042 0.666504 8.31336C1.49984 7.20836 2.47234 6.79503 3.58317 7.07086C4.21734 7.22836 4.67067 7.68586 5.17234 8.1917C5.989 9.01586 6.93484 9.97003 9.00067 9.97003C11.2232 9.97003 12.6115 8.86586 13.1673 6.6567C12.334 7.76086 11.3615 8.17503 10.2507 7.8992C9.6165 7.7417 9.16317 7.28419 8.66234 6.77836C7.844 5.9542 6.89817 5.00003 4.83317 5.00003Z" fill="#C2C2C2"/>
</svg>
