<svg width="12" height="8" viewBox="0 0 12 8" fill="none" xmlns="http://www.w3.org/2000/svg">
<path d="M0.504 0.207999H2.064L2.472 2.656V7H0.912V2.428L0.504 0.207999ZM5.172 0.0399995C5.812 0.0399995 6.356 0.168 6.804 0.424C7.252 0.68 7.592 1.048 7.824 1.528C8.064 2 8.184 2.572 8.184 3.244V7H6.624V3.496C6.624 2.784 6.456 2.248 6.12 1.888C5.792 1.52 5.308 1.336 4.668 1.336C4.228 1.336 3.84 1.436 3.504 1.636C3.176 1.828 2.92 2.1 2.736 2.452C2.56 2.804 2.472 3.216 2.472 3.688L1.92 3.388C1.992 2.684 2.176 2.084 2.472 1.588C2.768 1.092 3.148 0.712 3.612 0.448C4.076 0.176 4.596 0.0399995 5.172 0.0399995Z" fill="white"/>
<path d="M10.466 7.096C10.282 7.096 10.114 7.052 9.96197 6.964C9.81797 6.876 9.70197 6.76 9.61397 6.616C9.52597 6.464 9.48197 6.296 9.48197 6.112C9.48197 5.928 9.52597 5.764 9.61397 5.62C9.70197 5.468 9.81797 5.348 9.96197 5.26C10.114 5.172 10.282 5.128 10.466 5.128C10.65 5.128 10.814 5.172 10.958 5.26C11.11 5.348 11.23 5.468 11.318 5.62C11.406 5.764 11.45 5.928 11.45 6.112C11.45 6.296 11.406 6.464 11.318 6.616C11.23 6.76 11.11 6.876 10.958 6.964C10.814 7.052 10.65 7.096 10.466 7.096Z" fill="#FF7800"/>
</svg>
