<svg width="20" height="20" viewBox="0 0 20 20" fill="none" xmlns="http://www.w3.org/2000/svg">
<g clip-path="url(#clip0_2508_306)">
<path opacity="0.6" d="M9.72209 1.66663H6.94428C5.41015 1.66663 4.1665 2.91028 4.1665 4.4444C4.1665 5.97853 5.41015 7.22218 6.94428 7.22218H9.72209V1.66663Z" fill="#C2C2C2"/>
<path opacity="0.4" d="M9.72209 7.22205H6.94428C5.41015 7.22205 4.1665 8.46571 4.1665 9.9998C4.1665 11.534 5.41015 12.7776 6.94428 12.7776H9.72209V7.22205Z" fill="#C2C2C2"/>
<path d="M15.2773 9.9998C15.2773 11.534 14.0336 12.7776 12.4994 12.7776C10.9653 12.7776 9.72168 11.534 9.72168 9.9998C9.72168 8.46571 10.9653 7.22205 12.4994 7.22205C14.0336 7.22205 15.2773 8.46571 15.2773 9.9998Z" fill="#C2C2C2"/>
<path opacity="0.2" d="M6.94428 12.778H9.72209V15.5557C9.72209 17.0899 8.47842 18.3335 6.94428 18.3335C5.41015 18.3335 4.1665 17.0899 4.1665 15.5557C4.1665 14.0216 5.41015 12.778 6.94428 12.778Z" fill="#C2C2C2"/>
<path opacity="0.8" d="M9.72168 1.66663H12.4994C14.0336 1.66663 15.2773 2.91028 15.2773 4.4444C15.2773 5.97853 14.0336 7.22218 12.4994 7.22218H9.72168V1.66663Z" fill="#C2C2C2"/>
</g>
<defs>
<clipPath id="clip0_2508_306">
<rect width="20" height="20" fill="white"/>
</clipPath>
</defs>
</svg>
