<svg width="21" height="22" viewBox="0 0 21 22" fill="none" xmlns="http://www.w3.org/2000/svg">
<g clip-path="url(#clip0_2505_131)">
<g clip-path="url(#clip1_2505_131)">
<path fill-rule="evenodd" clip-rule="evenodd" d="M5.87526 5.70691C5.80419 5.09118 6.35833 5.35218 6.28754 5.72341C6.18355 5.82233 5.99145 5.7412 5.87526 5.70691ZM6.53489 5.59144C6.67447 5.57719 6.80752 5.55627 6.84829 5.44305C6.65523 5.32405 6.36675 5.61768 6.48543 5.75645C6.55131 5.75085 6.49304 5.62114 6.53489 5.59144ZM4.6878 5.97076C4.80403 5.91671 4.995 5.93711 5.05066 5.82237C4.70471 5.70188 4.0817 5.79082 3.97859 6.02026C4.24232 6.00396 4.46287 5.79468 4.6878 5.97076ZM3.91262 6.0368C3.83768 6.02107 3.80879 6.10619 3.8467 6.15219C3.90526 6.15026 3.91307 6.09761 3.91262 6.0368ZM3.73119 6.36666C3.72065 6.20934 3.34008 6.08373 3.30245 6.3007C3.33537 6.42389 3.64233 6.50313 3.73119 6.36666ZM3.08806 6.21827C3.00946 6.22193 2.96905 6.26423 2.92309 6.3007C2.9829 6.33555 3.11539 6.32307 3.08806 6.21827ZM2.89021 6.66347C3.18071 6.64307 3.26913 6.91018 3.5168 6.87786C3.56296 6.59035 2.97207 6.19485 2.89021 6.66347ZM6.81525 8.09821C6.72864 7.81077 6.99386 7.56406 6.83171 7.33953C6.60722 7.35744 6.41307 8.39937 6.73278 8.39518C6.96235 8.392 7.04328 7.76179 7.06256 7.55412C6.89449 7.64966 6.9677 7.98684 6.81525 8.09821ZM4.06109 7.9829C4.06608 7.93931 4.03823 7.92869 3.99513 7.93328C3.99621 7.97779 4.0328 8.0126 4.06109 7.9829ZM4.86923 8.46114C4.87241 8.35896 4.86839 8.26406 4.78681 8.24675C4.72471 8.23971 4.72841 8.29831 4.6878 8.3128C4.71046 8.39997 4.7565 8.464 4.86923 8.46114ZM4.07759 8.98893C4.3938 9.02451 4.60554 9.25262 4.90219 9.2527C4.66563 9.09345 4.41984 8.94349 4.04459 8.92293C4.03264 8.96792 4.07735 8.95613 4.07759 8.98893ZM6.5679 9.23628C6.54331 9.12339 6.49433 9.03485 6.43601 8.95585C6.45746 9.07176 6.48704 9.17958 6.5679 9.23628ZM4.75372 9.59906C4.54674 9.32209 4.21696 9.08073 3.8467 9.02181C3.89898 9.46424 4.39079 9.46742 4.75372 9.59906ZM4.19306 9.69795C4.05171 9.46005 3.80939 9.32297 3.5168 9.23628C3.68125 9.44065 3.83189 9.74523 4.19306 9.69795ZM3.43438 9.46718C3.49068 9.56493 3.63223 9.66486 3.59935 9.79699C3.45474 9.75473 3.38443 9.63806 3.23649 9.5991C3.31505 9.70821 3.61488 10.1919 3.79716 10.1764C3.91351 10.1664 3.96611 10.0379 3.94558 9.83007C3.85644 9.6387 3.57266 9.55427 3.43438 9.46718ZM4.27548 9.89596C4.31215 9.99677 4.32502 10.1213 4.45695 10.1268C4.43449 10.0119 4.36736 9.94147 4.27548 9.89596ZM4.16001 9.9455C4.09852 9.93878 4.0633 9.95854 4.06113 10.0113C4.0796 10.015 4.08681 10.0296 4.09405 10.0443C4.14677 10.0423 4.16674 10.007 4.16001 9.9455ZM6.98018 10.3247C6.99736 10.2315 7.01483 10.0519 6.98018 9.96188C6.95901 10.0545 6.87936 10.2629 6.98018 10.3247ZM5.82576 9.97838C5.83836 10.0759 5.79123 10.2329 5.87522 10.2589C5.87888 10.1867 5.89571 10.0242 5.82576 9.97838ZM6.60086 10.3577C6.553 10.3153 6.48434 10.3794 6.45243 10.3413C6.4187 10.2321 6.43267 10.0753 6.337 10.0279C6.3261 10.0279 6.31503 10.0279 6.30408 10.0279C6.16825 10.3092 6.18165 10.9136 6.41947 11.0668C6.46438 11.1429 6.46877 11.2595 6.5844 11.2648C6.67946 11.1894 6.7028 11.0425 6.71636 10.8854C6.50994 10.8421 6.70224 10.4862 6.60086 10.3577ZM7.09568 10.539C7.11601 10.393 7.24085 10.1807 7.14514 10.0279C7.11355 10.1724 7.05375 10.3761 7.09568 10.539ZM4.19306 10.6712C4.21934 10.5958 4.19869 10.4679 4.14355 10.4237C4.10508 10.4959 4.0827 10.6622 4.19306 10.6712ZM4.48987 10.7371C4.55648 10.7804 4.56159 10.8852 4.65484 10.902C4.77087 10.7539 4.55076 10.4928 4.48987 10.7371ZM7.31003 11.0668C7.31015 11.1174 7.24391 11.1865 7.29357 11.2317C7.30311 11.1909 7.3533 11.1059 7.31003 11.0668ZM7.45842 11.71C7.45774 11.6339 7.46772 11.5471 7.4255 11.5122C7.41809 11.571 7.37459 11.701 7.45842 11.71ZM5.36398 12.3863C5.37376 12.4478 5.38378 12.5094 5.4464 12.5182C5.48685 12.4616 5.45698 12.3614 5.36398 12.3863ZM6.10611 12.4688C6.12905 12.5124 6.19498 12.5989 6.238 12.5676C6.19985 12.5395 6.15582 12.4307 6.10611 12.4688ZM7.67281 12.6503C7.62649 12.8466 7.73616 13.0255 7.82128 13.145C7.85613 12.9536 7.85287 12.6794 7.67281 12.6503ZM8.08521 13.9199C8.11012 13.8701 8.11894 13.7164 8.06871 13.6893C8.02529 13.7489 7.98657 13.8915 8.08521 13.9199ZM8.82719 14.7117C8.80332 14.5905 8.70838 14.4597 8.61288 14.4642C8.64628 14.5847 8.65208 14.733 8.82719 14.7117ZM8.97578 14.9425C8.97646 15.0188 8.96656 15.1059 9.0087 15.1403C9.01083 15.0615 9.0097 14.9855 8.97578 14.9425ZM3.5333 14.9591C3.53355 15.0195 3.56586 15.0475 3.59935 15.0745C3.59275 15.0205 3.58502 14.968 3.5333 14.9591ZM9.56949 15.866C9.52888 15.555 9.36532 15.3668 9.15721 15.223C9.18699 15.5449 9.34471 15.7392 9.56949 15.866ZM12.2248 17.4988C12.2147 17.4895 12.1464 17.4604 12.1423 17.4988C12.167 17.5179 12.2117 17.5568 12.2248 17.4988ZM20.5863 18.7193C20.5863 18.7799 20.5863 18.8401 20.5863 18.9007C20.5595 18.9564 20.5508 19.0301 20.5368 19.0985C20.0782 19.3931 19.2166 19.2846 18.838 19.6594C18.1741 19.3017 17.557 19.8651 16.8591 19.9233C16.7438 19.9328 16.6156 19.9136 16.4961 19.9233C16.0837 19.9566 15.681 20.0531 15.2593 20.0882C14.8268 20.1242 14.3935 20.1506 13.94 20.1707C13.7749 20.1707 13.6101 20.1707 13.4452 20.1707C11.3997 20.0633 9.37727 19.7881 7.87082 19.1151C7.11979 18.7795 6.42848 18.3679 5.79284 17.8782C5.17426 17.4018 4.53929 16.8723 4.09405 16.2785C3.62003 15.6462 3.14577 15.0313 2.7252 14.3325C2.31948 13.658 1.94024 12.9476 1.60379 12.1554C1.27188 11.3744 1.03539 10.6014 0.812067 9.64864C0.666095 9.02547 0.512033 8.31992 0.251359 7.73559C0.149859 7.50804 0.0316962 7.32178 0.0205078 7.1088C0.0205078 7.05941 0.0205078 7.00979 0.0205078 6.96041C0.101845 6.26769 0.640579 5.8656 1.27389 5.67394C1.43246 5.62601 1.58664 5.58021 1.73567 5.49252C1.74537 5.48692 1.84039 5.47722 1.80172 5.42659C1.51955 5.3587 1.28741 5.77412 0.977116 5.65748C0.701632 5.55389 0.860242 5.12736 1.15855 4.99781C1.2978 4.93732 1.57429 4.92159 1.70271 4.84938C1.92415 4.72494 2.02464 4.46202 1.98315 4.22267C1.95856 4.08125 1.81178 4.00679 1.81822 3.89282C1.82723 3.73388 2.11141 3.59568 2.24696 3.497C2.41281 3.3763 2.60913 3.22554 2.59332 3.03521C2.57666 2.8364 2.34283 2.77305 2.23046 2.62293C2.05406 2.38733 2.02609 2.03518 2.31288 1.89717C2.61356 1.75249 3.17375 1.83133 3.23649 2.21057C3.29179 2.54481 3.0545 2.67215 3.15394 2.91971C3.33924 3.38036 4.78025 2.65118 4.42395 3.61242C4.74085 4.10918 5.97926 3.68422 6.00719 4.47002C6.52371 4.48041 6.76108 4.87236 7.17811 5.03077C7.28987 5.07319 7.42296 5.07319 7.54096 5.1132C8.2443 5.35226 9.11587 5.60871 9.40456 6.28415C9.14368 6.45991 8.78767 6.34223 8.48107 6.23469C8.21436 6.14104 7.82558 5.95559 7.55747 6.06972C7.29164 6.18294 7.30585 6.63711 7.34308 7.09217C7.44208 8.30366 7.50016 9.55326 7.67285 10.638C7.91405 12.1522 8.4296 13.3649 9.15725 14.3159C9.86115 15.2358 10.6881 16.1992 11.7629 16.8722C12.6698 17.4399 13.6888 17.8878 14.979 18.175C15.1703 18.2177 15.4016 18.3109 15.5067 18.2904C15.6625 18.2605 15.9977 17.8074 16.117 17.6968C16.4007 17.433 16.7825 17.064 17.1888 17.3833C17.1336 17.823 16.7396 17.924 16.6446 18.3236C16.8889 18.479 17.148 18.3383 17.4528 18.3564C17.8074 18.3774 18.0794 18.5808 18.3765 18.5378C18.5661 18.5103 18.661 18.3691 18.8052 18.274C19.1329 18.7531 20.3963 18.1295 20.5863 18.7193ZM17.0074 17.4988C17.0004 17.4456 17.0291 17.3562 16.9744 17.3506C16.9269 17.3747 16.8799 17.5263 17.0074 17.4988ZM8.71196 5.88834C8.87351 5.98509 9.01574 6.10132 9.15721 6.21831C9.24237 5.96754 8.99795 5.80712 8.71196 5.82241C8.71196 5.84431 8.71196 5.86632 8.71196 5.88834ZM13.1483 18.0431C13.2112 18.0563 13.2567 18.0689 13.2638 17.9937C13.205 17.9899 13.1651 18.0046 13.1483 18.0431ZM10.8723 16.5917C10.8668 16.6694 11.0235 16.6709 11.0539 16.6577C11.0281 16.6061 10.95 16.5392 10.8723 16.5917ZM10.4765 16.2784C10.504 16.3062 10.5734 16.2915 10.6249 16.295C10.6305 16.2345 10.6065 16.2033 10.592 16.1629C10.5053 16.1534 10.4813 16.2063 10.4765 16.2784ZM7.31003 9.53302C7.26528 9.49511 7.2328 9.56457 7.21107 9.53302C7.2648 9.12388 7.35112 8.49395 7.17811 8.14783C7.13532 8.11048 7.06763 8.16095 7.04622 8.13125C7.16136 7.85637 7.23912 7.28306 7.19461 6.94383C7.17895 6.82426 7.11685 6.6116 7.04622 6.56451C6.86873 6.44635 6.70723 6.62794 6.58436 6.66347C6.50704 6.68601 6.42108 6.66991 6.337 6.67989C6.00445 6.71998 5.65157 6.81915 5.42998 6.92725C5.54549 7.00424 5.70921 7.03285 5.75976 7.1746C5.4724 7.15427 5.24823 7.07064 5.00108 7.00975C5.02744 7.38183 4.57113 7.26523 4.29198 7.29019C4.38841 7.29228 4.40387 7.33888 4.40745 7.40557C4.41892 7.62447 3.69859 7.88389 3.45088 7.71905C3.09756 8.00391 3.60635 8.29489 3.58281 8.65911C3.51334 8.71059 3.48127 8.79937 3.41788 8.85684C3.06673 8.86538 2.69739 8.93601 2.75808 9.30221C2.71063 9.27452 2.63578 9.25604 2.57665 9.28562C2.48691 9.51684 2.63759 9.76781 2.84063 9.81349C2.89178 9.7986 2.90369 9.74463 2.97256 9.74753C3.4312 9.83523 3.59267 10.1394 3.56631 10.7204C3.56172 10.8205 3.57166 10.951 3.50034 11.0174C3.24007 10.9996 2.99876 10.3572 3.41784 10.3413C3.31734 10.1934 3.24124 9.97283 3.05498 9.97834C2.84147 9.9847 2.74565 10.3221 2.5932 10.4402C2.81294 10.5616 3.32901 10.8967 2.90651 11.1163C3.11567 11.1477 3.23238 11.2306 3.31879 11.3471C3.46279 11.5416 3.4582 11.833 3.56622 11.9904C3.7848 12.3093 3.90019 11.7045 4.15985 11.9573C4.22119 11.9784 4.13285 11.8978 4.12689 11.8915C3.90413 11.651 3.56437 11.4539 3.43426 11.1658C3.53427 11.12 3.66833 11.17 3.76403 11.1823C3.80187 10.9885 3.66724 10.7693 3.71457 10.6214C3.74866 10.5154 3.81156 10.5621 3.87954 10.5225C3.9195 10.4993 3.88823 10.4127 3.96204 10.4401C3.9616 10.6665 3.82517 11.0476 3.97843 11.2152C4.20223 11.2554 4.26687 10.8705 4.45679 10.8689C4.56288 10.868 4.66313 11.0547 4.7371 11.1493C4.82597 11.2627 4.94674 11.4021 4.91853 11.5285C4.85913 11.7949 4.41167 11.5921 4.25886 11.479C4.35199 11.8487 4.92505 11.9061 4.95149 12.3863C4.95451 12.4398 4.92747 12.5082 4.93503 12.5675C4.96743 12.8209 5.20372 13.0092 5.44624 12.848C5.4819 12.9389 5.48657 13.0607 5.57829 13.0954C5.65862 13.0275 5.63008 12.8503 5.67717 12.749C5.96493 12.8092 6.11517 12.9478 6.20488 13.1777C6.24931 13.2915 6.23784 13.5024 6.41927 13.5076C6.44704 13.2264 6.22673 13.0522 6.18846 12.7819C6.33628 13.0204 6.8695 13.2785 6.84817 13.6561C6.834 13.9051 6.53803 13.9322 6.25442 13.9694C6.52471 14.0623 6.63792 14.365 6.93059 14.4641C7.00923 14.4909 7.11025 14.4679 7.19445 14.4972C7.4086 14.5717 7.75101 15.0107 7.65631 15.2888C7.2 15.5188 6.84398 14.8973 6.33688 14.9096C6.55071 15.1822 6.90049 15.2729 7.19449 15.4044C7.5109 15.5456 7.82772 15.6903 8.13455 15.8331C8.85786 16.1695 9.35993 16.6097 9.8333 17.169C9.50485 17.3481 8.50933 17.0502 9.10762 16.839C8.89951 16.8319 8.67924 16.7014 8.49733 16.7732C8.59376 17.4025 9.4217 17.3002 10.0477 17.3998C9.9907 17.5077 9.91037 17.5924 9.84972 17.6967C9.89797 17.7251 9.96466 17.7355 10.0477 17.7296C10.0076 17.7939 9.90325 17.7941 9.89918 17.8945C9.97935 18.0013 10.138 18.0296 10.2455 18.1089C10.6694 17.8049 10.7169 18.4945 10.9877 18.5047C11.2436 18.5142 11.2926 18.1466 11.5485 18.1089C11.4842 18.2426 11.3584 18.3146 11.3012 18.4553C11.5518 18.3948 11.6232 18.2598 11.8287 18.2078C12.5651 18.0215 13.1688 18.6349 13.7748 18.7027C13.9927 18.727 14.2093 18.8493 14.4015 18.8841C14.6501 18.929 14.8029 18.8472 14.9952 18.7523C14.7023 18.4788 14.0299 18.5853 13.7914 18.2574C13.8006 18.2006 13.8394 18.1735 13.8739 18.142C13.102 18.3116 12.616 17.849 12.2906 17.4164C11.3383 17.1704 10.5028 16.8073 10.097 16.0146C10.0776 15.9399 10.1702 15.9777 10.1467 15.8991C9.81185 15.5265 9.4772 15.1483 9.20659 14.7116C9.11306 14.5608 9.04902 14.3714 8.94265 14.2499C8.87528 14.1729 8.76223 14.1305 8.6953 14.0518C8.62201 13.9656 8.61203 13.8577 8.49729 13.8211C8.45318 13.8868 8.48276 14.0262 8.44791 14.1014C8.36858 13.7829 8.19186 13.4805 7.8542 13.4746C7.84792 13.243 8.03503 13.2049 8.13451 13.0788C8.00355 12.9213 7.972 12.723 7.90366 12.4852C7.73753 11.9073 7.60025 11.3036 7.4583 10.7699C7.27019 10.8401 7.22032 11.0486 7.12852 11.2152C7.13758 10.977 7.14873 10.7406 7.27699 10.6214C7.33563 10.6288 7.34207 10.6884 7.37588 10.7204C7.40687 10.608 7.5132 10.5032 7.4583 10.3576C7.41572 10.2919 7.29124 10.3225 7.26049 10.3247C7.34187 10.1255 7.41021 9.76399 7.31003 9.53302ZM13.9399 19.3131C14.0825 19.2522 14.2109 19.1772 14.2696 19.0326C14.1146 19.0714 13.8961 19.13 13.9399 19.3131ZM13.9563 18.9832C13.861 19.036 13.7537 19.0774 13.6926 19.1646C13.8293 19.1728 13.9895 19.0356 13.9563 18.9832ZM13.4452 19.2305C13.5386 19.2056 13.6385 19.1092 13.6266 19.0326C13.5182 19.0434 13.3505 19.1208 13.4452 19.2305ZM13.5111 18.8511C13.3627 18.8043 13.2415 18.9204 13.2306 19.0657C13.3629 19.0329 13.4524 18.9574 13.5111 18.8511ZM13.0492 18.8843C12.9043 18.9095 12.7959 18.9713 12.7523 19.0985C12.9295 19.1688 13.0203 19.0165 13.0492 18.8843ZM12.8184 19.3131C12.8593 19.3154 12.8984 19.3161 12.9009 19.28C12.8762 19.2538 12.8069 19.2558 12.8184 19.3131ZM13.0824 18.6038C12.8516 18.5861 12.5756 18.7358 12.7195 18.9336C12.8732 18.8563 13.0288 18.7812 13.0824 18.6038ZM11.9443 18.9173C12.0884 18.9375 12.1261 18.7727 12.2248 18.8016C12.2821 18.8377 12.2473 18.9661 12.3401 18.9667C12.5558 18.9228 12.6335 18.6284 12.505 18.4224C12.2143 18.4736 11.9483 18.6336 11.9443 18.9173ZM12.0102 18.4884C11.9227 18.5328 11.8295 18.5713 11.7794 18.6533C11.8873 18.6486 12.048 18.5296 12.0102 18.4884ZM11.5486 18.571C11.5578 18.6148 11.4807 18.6548 11.5319 18.6863C11.5456 18.6655 11.6323 18.584 11.5486 18.571ZM11.2517 18.9666C11.2465 18.9891 11.2281 18.9981 11.2354 19.0326C11.2571 19.0326 11.2792 19.0326 11.3013 19.0326C11.3058 18.9894 11.2951 18.9617 11.2517 18.9666ZM11.0044 18.8843C10.921 18.8889 10.8895 18.9454 10.8889 19.0326C10.9607 19.0166 11.0261 18.9941 11.0044 18.8843ZM9.33847 18.0431C9.23685 18.0386 9.20586 18.0543 9.32209 18.0762C9.43281 18.0967 9.62813 18.1074 9.70145 18.0762C9.6144 18.0752 9.38947 18.0455 9.33847 18.0431ZM9.83338 17.7793C9.74709 17.7137 9.57363 17.7612 9.48706 17.7957C9.53701 17.933 9.78227 17.872 9.83338 17.7793ZM9.30571 19.0162C9.71703 19.2317 10.2834 19.467 10.8723 19.3954C10.4444 19.1859 9.8079 19.0965 9.30571 19.0162ZM8.69542 18.8347C8.73482 18.8888 8.82787 18.8891 8.89323 18.9173C9.01498 18.7996 8.74738 18.7333 8.69542 18.8347ZM7.1451 17.4988C7.03378 17.5085 6.91264 17.5082 6.88125 17.5979C6.9873 17.6372 7.14076 17.6128 7.1451 17.4988ZM6.83171 17.9276C6.87047 17.9628 6.94174 18.0046 6.96368 17.9276C6.94661 17.9102 6.84596 17.8937 6.83171 17.9276ZM7.02964 16.5258C7.04461 16.4568 6.91329 16.4307 6.89775 16.4928C6.93389 16.5115 6.96521 16.5353 7.02964 16.5258ZM7.24411 17.0864C7.24331 17.0638 7.25188 17.0503 7.26057 17.0371C7.21143 16.9863 7.11206 16.9773 7.02964 17.0041C7.04284 17.0834 7.17493 17.1165 7.24411 17.0864ZM7.26061 18.1422C7.2817 18.1646 7.33845 18.1646 7.35954 18.1422C7.3673 18.0903 7.33893 18.0747 7.31007 18.0595C7.29526 18.0888 7.27023 18.1077 7.26061 18.1422ZM7.7719 16.2455C7.71817 16.0901 7.54298 16.1311 7.4255 16.0806C7.2367 15.9992 7.07552 15.8051 6.83175 15.8003C6.8208 15.8003 6.80973 15.8003 6.79887 15.8003C7.01088 16.0501 7.29148 16.3186 7.7719 16.2455ZM6.91421 15.6354C6.76027 15.5308 6.59164 15.4409 6.36997 15.4045C6.44044 15.5814 6.71475 15.6423 6.91421 15.6354ZM7.42546 16.4103C7.54109 16.5312 7.68621 16.6225 7.93674 16.6082C7.84044 16.4789 7.61031 16.3961 7.42546 16.4103ZM8.05217 17.1526C7.88237 17.0349 7.6153 16.844 7.3925 16.8886C7.52137 17.0567 7.78043 17.1825 8.05217 17.1526ZM7.42546 17.7793C7.42147 17.8028 7.39833 17.807 7.3925 17.8285C7.43315 17.8816 7.49432 17.7904 7.42546 17.7793ZM7.80478 18.2741C7.81878 18.337 7.87935 18.3534 7.93674 18.373C7.95908 18.3348 8.00299 18.3182 7.98621 18.2411C7.94612 18.217 7.80196 18.2031 7.80478 18.2741ZM8.11817 17.5484C8.0671 17.5171 7.88084 17.4821 7.83774 17.5484C7.91775 17.5809 8.07491 17.6649 8.11817 17.5484ZM8.16764 16.9875C8.18414 16.8648 8.04537 16.8643 7.98621 16.905C7.99176 16.9875 8.10091 16.9665 8.16764 16.9875ZM8.34902 16.097C8.27453 15.9845 8.06763 16.0046 7.92024 15.9651C7.8123 15.8296 7.55421 15.7803 7.32653 15.8167C7.58729 15.9904 7.88386 16.1279 8.34902 16.097ZM8.31606 17.6802C8.3869 17.7414 8.49794 17.7622 8.59642 17.7957C8.60169 17.7569 8.62242 17.7338 8.61288 17.6802C8.56486 17.6248 8.35651 17.5962 8.31606 17.6802ZM6.91421 15.0085C6.93071 14.9315 6.88544 14.9164 6.81525 14.9261C6.79038 15.0115 6.87264 14.9895 6.91421 15.0085ZM7.31003 15.2065C7.26186 15.1942 7.27808 15.1176 7.21107 15.124C7.1503 15.1797 7.25977 15.2645 7.31003 15.2065ZM6.17208 15.3219C6.11734 15.2009 5.99399 15.1482 5.90822 15.058C6.06905 14.825 5.71021 14.7296 5.64433 14.5632C5.64357 14.5131 5.67914 14.4991 5.69379 14.4642C5.55523 14.383 5.39521 14.3231 5.31443 14.184C5.37822 14.1378 5.54826 14.1977 5.61125 14.1509C5.51136 14.1079 5.4035 14.0729 5.3639 13.9695C5.42173 13.8349 5.65685 13.8777 5.71021 13.7386C5.42612 13.6759 5.14387 13.5249 4.83607 13.5407C4.83957 13.6582 4.94413 13.6745 4.9845 13.7551C4.89326 13.7145 4.81945 13.6561 4.68768 13.6561C4.67782 13.7375 4.7305 13.7562 4.72072 13.8376C4.63077 13.8449 4.58517 13.8082 4.48975 13.8212C4.55777 13.973 4.73219 14.0185 4.78669 14.1841C4.71923 14.2011 4.62767 14.1572 4.60526 14.1841C4.77936 14.3287 5.03364 14.4811 5.13292 14.6456C4.97093 14.6155 4.87821 14.5158 4.72072 14.4808C4.85257 14.7419 5.17361 14.7963 5.41336 14.9261C5.65878 15.059 5.87868 15.2732 6.17208 15.3219ZM5.80922 15.5198C5.87816 15.5574 6.0154 15.6771 6.10611 15.5859C6.02965 15.552 5.90935 15.4751 5.80922 15.5198ZM5.67733 15.4372C5.63093 15.3621 5.39416 15.3221 5.33105 15.3713C5.43867 15.4023 5.54009 15.4858 5.67733 15.4372ZM5.38044 15.4868C5.37524 15.5092 5.35701 15.5182 5.36398 15.5529C5.39299 15.5434 5.46085 15.5726 5.46294 15.5363C5.43734 15.5179 5.42853 15.4828 5.38044 15.4868ZM5.16605 13.2933C5.12105 13.1383 5.06096 12.9685 4.93519 12.8481C4.86746 12.7832 4.80186 12.7845 4.75377 12.6995C4.62631 12.4752 4.6874 12.1586 4.52287 11.9246C4.48396 11.9119 4.4089 11.8919 4.37445 11.9246C4.37754 12.0327 4.62852 12.2891 4.45699 12.4193C4.07771 12.4344 3.9317 12.1324 3.56643 12.1883C3.48416 12.4014 3.77498 12.5109 3.69827 12.6667C4.22292 12.8351 4.63959 13.1999 5.16605 13.2933ZM3.97859 13.788C4.0755 13.8618 4.21559 13.9798 4.34144 13.9695C4.24175 13.8988 4.15003 13.7325 3.97859 13.788ZM3.79716 13.6398C3.75437 13.5067 3.6802 13.4049 3.5168 13.3924C3.55005 13.535 3.70495 13.5561 3.79716 13.6398ZM3.5168 14.0685C3.6051 14.129 3.6928 14.2771 3.7807 14.2829C3.71642 14.1987 3.6381 14.0409 3.5168 14.0685ZM3.63231 12.9305C3.64084 12.906 3.65662 12.889 3.66527 12.8645C3.62297 12.8063 3.51869 12.8381 3.50038 12.8976C3.53282 12.9201 3.59456 12.9134 3.63231 12.9305ZM6.18862 13.5902C6.18628 13.4483 6.02864 13.3659 5.90822 13.4419C5.94638 13.5467 6.06136 13.5745 6.18862 13.5902ZM4.63822 11.4299C4.641 11.4026 4.53668 11.4026 4.53933 11.4299C4.56195 11.4349 4.63882 11.5043 4.63822 11.4299ZM3.99517 11.3638C3.97315 11.3638 3.95114 11.3638 3.92912 11.3638C3.90646 11.385 3.91282 11.4356 3.91262 11.4791C3.94277 11.4836 4.00511 11.5386 4.02813 11.4958C3.98732 11.4814 4.03288 11.381 3.99517 11.3638ZM2.75812 11.3472C2.81278 11.4715 3.03401 11.4623 3.07152 11.3308C2.97767 11.2945 2.83942 11.3197 2.75812 11.3472ZM2.80771 10.8854C2.74392 10.8822 2.68612 10.8849 2.64266 10.902C2.6555 10.9739 2.80726 10.9611 2.80771 10.8854ZM2.95605 8.23025C2.8713 8.26941 2.69454 8.19101 2.60978 8.23025C2.68484 8.52739 3.24116 8.36741 3.20353 8.13125C3.17157 7.9309 2.64254 7.98053 2.46135 7.99936C2.60177 8.10078 2.82497 8.11945 2.95605 8.23025ZM2.29642 8.54357C2.32745 8.58953 2.41273 8.58116 2.46135 8.60953C2.47089 8.57516 2.50228 8.56252 2.49431 8.51061C2.45105 8.48775 2.29538 8.46976 2.29642 8.54357ZM3.13756 8.47764C3.12867 8.51363 3.09756 8.58434 3.15394 8.59311C3.19322 8.56542 3.18501 8.50155 3.13756 8.47764ZM3.59935 7.48808C3.595 7.43986 3.63657 7.43753 3.63231 7.38915C3.56526 7.38259 3.51733 7.39515 3.5168 7.45507C3.54819 7.46224 3.55822 7.49061 3.59935 7.48808ZM3.58285 3.82681C3.51716 4.22927 3.87978 4.71613 4.30844 4.56891C4.32844 4.41702 4.25914 4.35444 4.25898 4.22263C4.36837 4.19611 4.43276 4.30115 4.48983 4.27209C4.32941 3.9818 3.90268 3.95777 3.58285 3.82681ZM3.40134 3.44749C3.5463 3.47619 3.77381 3.46166 3.8302 3.34853C3.72069 3.27536 3.39212 3.25576 3.40134 3.44749ZM3.00552 2.29299C3.03723 1.97268 2.6458 1.79567 2.41189 2.01268C2.26567 2.14823 2.20217 2.47559 2.42835 2.58993C2.40267 2.50557 2.32769 2.47068 2.34592 2.34258C2.51782 2.2443 2.83298 2.39051 3.00552 2.29299ZM2.89021 3.34849C2.93215 3.32454 2.99513 3.32168 2.98914 3.24956C2.93843 3.25467 2.85202 3.30933 2.89021 3.34849ZM2.54377 4.56891C2.74943 4.57378 2.9045 4.45779 3.10452 4.45352C3.27766 4.44986 3.44267 4.50138 3.64877 4.48648C3.50159 4.05452 2.78646 4.43175 2.54377 4.56891ZM2.23046 5.32759C2.6196 5.27812 3.16175 5.02208 3.68177 5.08024C3.87793 5.10213 4.04974 5.21252 4.16001 5.29463C4.10379 5.23462 4.03718 4.98835 4.16001 4.94835C4.43067 4.9999 4.43968 5.51127 4.77023 5.44309C4.93861 5.40836 4.98989 5.08172 4.90219 4.88235C5.02804 4.97089 5.09288 5.12044 5.26505 5.16274C5.22577 5.00409 5.11159 4.92034 5.0342 4.79988C5.08282 4.73863 5.14649 4.69226 5.13308 4.56891C4.66112 4.52355 4.2422 4.77831 3.7972 4.8658C3.45185 4.93382 3.19483 5.00119 2.89025 5.08019C2.66125 5.13956 2.40645 5.18121 2.23046 5.32759ZM0.845109 8.74154C0.822451 8.76255 0.816373 8.84006 0.86157 8.84046C0.875133 8.82851 0.90584 8.72633 0.845109 8.74154ZM1.42224 6.77898C0.699056 6.89372 1.46989 7.66282 1.9006 7.47169C1.95514 7.38794 1.93819 7.31119 1.93356 7.19118C2.1845 7.21577 2.37329 7.09354 2.59332 7.1418C2.62881 7.21847 2.56168 7.28338 2.54381 7.35611C3.29211 7.30866 3.66261 6.7207 4.47333 6.63051C4.57407 6.61928 4.68889 6.63711 4.80327 6.63051C5.14467 6.61059 5.52287 6.54732 5.87526 6.48205C6.22102 6.41813 6.53715 6.291 6.83175 6.21827C7.20149 6.12687 7.76397 5.8854 7.68943 5.39359C7.6809 5.33761 7.64206 5.2873 7.60693 5.22866C5.64155 5.03862 4.17209 5.80909 2.62632 6.11927C2.44062 6.15649 2.21484 6.13174 2.06553 6.28412C2.11954 6.41701 2.30934 6.41415 2.39531 6.51501C2.35232 6.56539 2.24603 6.55252 2.23046 6.63051C2.26684 6.77001 2.47363 6.73894 2.49431 6.89445C2.16602 7.12586 1.47766 6.8307 1.63671 6.36666C1.14068 6.47536 0.418461 6.58338 0.416328 7.1418C0.415322 7.3879 0.562018 7.61553 0.729603 7.75201C0.616069 7.23243 0.809049 6.46414 1.42224 6.77898ZM2.03253 9.86299C2.04754 9.75131 1.86398 9.67311 1.80168 9.74761C1.86245 9.80222 1.95759 9.82239 2.03253 9.86299ZM1.45528 10.0774C1.57191 10.4829 1.60986 10.9673 1.91706 11.1824C1.87082 10.7064 1.70191 10.353 1.45528 10.0774ZM2.14795 9.6486C2.19931 9.41578 1.85774 9.32458 1.83464 9.48364C1.81448 9.62216 2.03289 9.60606 2.14795 9.6486ZM2.21396 9.20324C2.1395 9.12182 1.95264 9.07135 1.81818 9.10432C1.86563 9.22107 2.15757 9.39385 2.21396 9.20324ZM2.01607 8.47764C2.09056 8.4312 2.16961 8.38918 2.18092 8.27963C2.08521 8.208 1.85609 8.1979 1.83464 8.3128C1.81842 8.39965 1.93481 8.43486 2.01607 8.47764ZM2.23046 8.75796C2.23766 8.70129 2.22394 8.66559 2.21396 8.62599C2.12936 8.6239 2.08988 8.66684 2.08203 8.74154C2.12308 8.75538 2.17037 8.76307 2.23046 8.75796ZM1.076 8.67554C1.06328 8.63328 1.0595 8.58204 1.02654 8.56011C0.985528 8.6045 0.983958 8.68423 1.076 8.67554ZM1.24093 7.55412C1.16692 7.52526 1.05737 7.55605 1.02654 7.62004C1.06115 7.65127 1.11097 7.66757 1.15846 7.68593C1.17513 7.63135 1.2497 7.63437 1.24093 7.55412ZM1.42224 9.68157C1.37958 9.58683 1.37422 9.45478 1.29039 9.40125C1.06457 9.43337 1.2883 9.75779 1.42224 9.68157ZM1.73563 11.4627C1.89666 11.852 2.06662 12.2727 2.41189 12.4521C2.15371 12.1649 2.09278 11.6896 1.91706 11.3472C1.85629 11.229 1.75934 11.1371 1.70267 11.0175C1.56934 10.7356 1.50788 10.4068 1.24093 10.2753C1.34613 10.69 1.57147 11.0653 1.73563 11.4627ZM6.27108 17.6473C6.17127 17.3074 5.90335 17.1353 5.5289 17.0701C5.43634 16.8493 5.16918 16.8033 5.11662 16.5423C5.10809 16.4888 5.21877 16.4699 5.18267 16.4434C4.68072 16.5385 4.66301 16.0065 4.42399 15.7837C3.82082 15.7946 3.93303 15.0483 3.59939 14.6623C3.50409 14.5519 3.40959 14.5264 3.30249 14.415C3.13768 13.9042 2.70758 13.6451 2.46139 13.1946C2.24273 12.7943 2.19673 12.3427 1.83472 12.0565C2.12115 13.0263 2.73478 13.846 3.28603 14.6624C3.72729 15.3156 4.02736 15.9377 4.52291 16.4599C4.6913 16.6371 4.88143 16.7558 5.0837 16.9216C5.42777 17.2038 5.66469 17.7271 6.27108 17.6473ZM6.20504 16.5258C6.18729 16.4551 6.06007 16.4075 5.99065 16.4434C6.0546 16.4786 6.12487 16.5071 6.20504 16.5258ZM6.81525 16.097C6.70353 15.9668 6.46962 15.9172 6.25454 15.8332C5.98775 15.7287 5.6071 15.6299 5.41348 15.7507C5.43296 15.9125 5.56187 15.9651 5.64433 16.064C5.87345 16.0993 6.00457 16.2111 6.2215 16.2288C6.47718 16.25 6.71596 16.2386 6.81525 16.097ZM14.682 19.8573C14.183 19.6297 13.4511 19.8858 12.9173 19.7583C12.8166 19.7341 12.7275 19.6649 12.637 19.6593C12.547 19.6538 12.4422 19.7013 12.3566 19.7089C11.8996 19.7495 11.4823 19.7044 11.0539 19.6427C10.7533 19.5996 10.4331 19.5827 10.1632 19.5109C9.90458 19.4422 9.63714 19.2839 9.37152 19.181C9.10199 19.0767 8.82139 18.9728 8.56342 18.8677C8.05446 18.6603 7.51356 18.3015 6.98014 18.1586C7.33998 18.5408 7.95948 18.6637 8.38207 18.9832C7.7849 18.8162 7.3343 18.5027 6.79879 18.2741C7.21602 18.6476 7.79822 18.8739 8.38207 19.115C8.9635 19.3554 9.59532 19.5587 10.2785 19.6593C11.6357 19.8592 13.2274 20.1561 14.682 19.8573ZM15.1108 19.8078C15.0261 19.8112 14.9206 19.7935 14.913 19.8738C14.9848 19.9353 15.1055 19.9289 15.1108 19.8078ZM16.0014 17.8617C16.0248 17.9835 16.2017 17.9472 16.183 17.8122C16.093 17.7994 16.0541 17.8376 16.0014 17.8617ZM17.3702 18.7193C16.9269 18.7086 16.38 18.5554 15.9188 18.571C15.7419 18.5768 15.5269 18.6192 15.4736 18.8016C15.6097 18.8568 15.7555 18.8237 15.9188 18.8183C16.4537 18.8002 17.1073 19.0406 17.3702 18.7193ZM17.8156 18.6863C17.7384 18.6861 17.7157 18.7405 17.7001 18.8016C17.7213 18.8243 17.7717 18.8181 17.8156 18.8183C17.8077 18.7453 17.8382 18.7362 17.8156 18.6863ZM18.7886 18.6204C18.7082 18.6081 18.6782 18.7082 18.7061 18.7524C18.758 18.7602 18.7706 18.7288 18.8052 18.7193C18.8171 18.6689 18.7767 18.6707 18.7886 18.6204ZM20.1574 18.7193C19.8198 18.6833 19.4255 18.7055 19.1185 18.7524C19.2992 18.9226 19.9485 18.814 20.1574 18.7193ZM4.29198 8.69192C4.45466 8.78231 4.60477 8.97275 4.81977 8.95585C4.76169 8.87652 4.67935 8.82139 4.62176 8.74154C4.68301 8.73671 4.73505 8.7229 4.75372 8.67554C4.55314 8.5352 4.29589 8.36379 4.19302 8.18063C4.26091 8.31219 4.36483 8.5218 4.29198 8.69192ZM6.40301 8.824C6.36771 8.78786 6.38361 8.70033 6.33696 8.67558C6.32646 8.74733 6.3729 8.84767 6.40301 8.824ZM4.88569 10.2589C4.91097 10.5304 5.08451 10.6535 5.10008 10.935C4.9073 10.7155 4.79969 10.4107 4.6713 10.1268C4.6587 10.4703 4.76254 10.6831 4.85273 10.9186C4.92215 11.0995 4.98723 11.3119 5.16605 11.3638C5.24956 11.3482 5.24489 11.2444 5.33109 11.2318C5.42278 11.245 5.47051 11.3889 5.5289 11.3804C5.48488 11.3308 5.47115 11.2512 5.46294 11.166C5.47888 11.1049 5.56621 11.1152 5.59483 11.0669C5.42897 10.7271 5.19124 10.459 4.88569 10.2589Z" fill="#C2C2C2"/>
</g>
</g>
<defs>
<clipPath id="clip0_2505_131">
<rect width="20.606" height="20.6061" fill="white" transform="translate(0.000488281 0.697021)"/>
</clipPath>
<clipPath id="clip1_2505_131">
<rect width="20.606" height="20.606" fill="white" transform="translate(0.000488281 0.697021)"/>
</clipPath>
</defs>
</svg>
