<svg width="20" height="20" viewBox="0 0 20 20" fill="none" xmlns="http://www.w3.org/2000/svg">
<g clip-path="url(#clip0_2508_292)">
<g clip-path="url(#clip1_2508_292)">
<path d="M2.16682 8.82499L6.98349 3.99999L8.39182 5.41666C8.30067 5.76855 8.32707 6.14059 8.46699 6.47608C8.6069 6.81158 8.85266 7.09213 9.16682 7.27499V11.8917C8.91371 12.0378 8.70347 12.2479 8.55721 12.501C8.41094 12.754 8.33379 13.0411 8.33349 13.3333C8.33349 13.7754 8.50908 14.1993 8.82164 14.5118C9.1342 14.8244 9.55813 15 10.0002 15C10.4422 15 10.8661 14.8244 11.1787 14.5118C11.4912 14.1993 11.6668 13.7754 11.6668 13.3333C11.6665 13.0411 11.5894 12.754 11.4431 12.501C11.2968 12.2479 11.0866 12.0378 10.8335 11.8917V7.84166L12.5585 9.58333C12.509 9.71632 12.489 9.85852 12.5002 9.99999C12.5002 10.3296 12.5979 10.6519 12.781 10.9259C12.9642 11.2 13.2245 11.4136 13.529 11.5398C13.8336 11.6659 14.1687 11.6989 14.492 11.6346C14.8153 11.5703 15.1122 11.4116 15.3453 11.1785C15.5784 10.9454 15.7372 10.6484 15.8015 10.3251C15.8658 10.0018 15.8328 9.66673 15.7066 9.36219C15.5805 9.05765 15.3669 8.79735 15.0928 8.61421C14.8187 8.43108 14.4965 8.33333 14.1668 8.33333C14.0253 8.32222 13.8831 8.34212 13.7502 8.39166L11.6085 6.24999C11.7084 5.86407 11.6666 5.45513 11.4908 5.09737C11.3149 4.7396 11.0167 4.4567 10.6502 4.29999C10.3111 4.16432 9.93816 4.13809 9.58349 4.22499L8.16682 2.81666L8.82515 2.16666C9.13742 1.85624 9.55984 1.68201 10.0002 1.68201C10.4405 1.68201 10.8629 1.85624 11.1752 2.16666L17.8418 8.83333C18.1522 9.1456 18.3265 9.56802 18.3265 10.0083C18.3265 10.4486 18.1522 10.8711 17.8418 11.1833L11.1752 17.85C10.8629 18.1604 10.4405 18.3346 10.0002 18.3346C9.55984 18.3346 9.13742 18.1604 8.82515 17.85L2.15849 11.1833C2.00407 11.028 1.88179 10.8437 1.79863 10.6411C1.71547 10.4385 1.67306 10.2215 1.67384 10.0024C1.67461 9.78341 1.71855 9.56668 1.80314 9.36465C1.88773 9.16261 2.01131 8.97923 2.16682 8.82499Z" fill="#C2C2C2"/>
</g>
</g>
<defs>
<clipPath id="clip0_2508_292">
<rect width="20" height="20" fill="white"/>
</clipPath>
<clipPath id="clip1_2508_292">
<rect width="20" height="20" fill="white"/>
</clipPath>
</defs>
</svg>
