<svg width="32" height="30" viewBox="0 0 32 30" fill="none" xmlns="http://www.w3.org/2000/svg">
<path fill-rule="evenodd" clip-rule="evenodd" d="M15.7274 0C7.25445 0 0.384766 6.81981 0.384766 15.2341C0.384766 21.9651 4.78044 27.6753 10.8766 29.69C11.6437 29.8309 11.925 29.36 11.925 28.9575C11.925 28.5944 11.911 27.3948 11.9046 26.1214C7.63674 27.0431 6.73535 24.3238 6.73535 24.3238C6.03726 22.563 5.03232 22.0946 5.03232 22.0946C3.63997 21.1488 5.13716 21.1691 5.13716 21.1691C6.67782 21.277 7.48842 22.7395 7.48842 22.7395C8.85648 25.0677 11.0773 24.3949 11.9531 24.0052C12.0912 23.02 12.4889 22.3485 12.9274 21.9676C9.52005 21.5829 5.93754 20.2766 5.93754 14.4394C5.93754 12.7763 6.53718 11.4167 7.51911 10.3503C7.35929 9.96565 6.8338 8.41685 7.66742 6.31835C7.66742 6.31835 8.95621 5.90957 11.8879 7.87985C13.1115 7.54216 14.4233 7.37331 15.7274 7.36697C17.0316 7.37331 18.3446 7.54216 19.5708 7.87985C22.4987 5.9083 23.7862 6.31835 23.7862 6.31835C24.6211 8.41685 24.0956 9.96565 23.9371 10.3503C24.9203 11.4167 25.5161 12.7763 25.5161 14.4394C25.5161 20.2906 21.9272 21.5791 18.5109 21.9562C19.0606 22.4284 19.5516 23.3564 19.5516 24.777C19.5516 26.8159 19.5337 28.4561 19.5337 28.9575C19.5337 29.3625 19.8099 29.8386 20.5872 29.6888C26.6808 27.6715 31.0714 21.9638 31.0714 15.2354C31.0701 6.82108 24.2004 0 15.7274 0Z" fill="#C2C2C2"/>
<path d="M6.19573 21.8737C6.16249 21.9499 6.04231 21.9727 5.93235 21.9207C5.82112 21.8712 5.75847 21.7671 5.79427 21.6922C5.82751 21.6147 5.94769 21.5931 6.05893 21.6452C6.17016 21.6934 6.23409 21.7975 6.19573 21.8737Z" fill="#C2C2C2"/>
<path d="M6.81698 22.5617C6.7441 22.629 6.6009 22.5973 6.50373 22.4919C6.40272 22.3853 6.38482 22.2431 6.45898 22.1758C6.53441 22.1085 6.6725 22.1403 6.7735 22.2469C6.87451 22.3523 6.89369 22.4932 6.81698 22.5617Z" fill="#C2C2C2"/>
<path d="M7.42209 23.4389C7.32747 23.5036 7.17405 23.4427 7.07943 23.3081C6.98482 23.1723 6.98482 23.0098 7.08199 22.945C7.1766 22.8803 7.32875 22.9387 7.42464 23.0733C7.51798 23.2104 7.51798 23.3729 7.42209 23.4389Z" fill="#C2C2C2"/>
<path d="M8.25039 24.2869C8.16601 24.3796 7.98701 24.3542 7.8566 24.2285C7.72235 24.1054 7.68527 23.9314 7.76965 23.8388C7.85532 23.7461 8.03559 23.7727 8.16728 23.8972C8.30025 24.0203 8.33989 24.1955 8.25039 24.2869Z" fill="#C2C2C2"/>
<path d="M9.39496 24.7783C9.35788 24.8976 9.18528 24.9522 9.01139 24.9014C8.83751 24.8494 8.72372 24.7098 8.75952 24.5891C8.79532 24.4685 8.9692 24.4127 9.14436 24.4673C9.31697 24.5181 9.43076 24.6577 9.39496 24.7783Z" fill="#C2C2C2"/>
<path d="M10.6505 24.8697C10.6543 24.9953 10.5073 25.0994 10.3244 25.102C10.1416 25.1058 9.992 25.0042 9.99072 24.8811C9.99072 24.7541 10.1352 24.6513 10.318 24.6475C10.5009 24.6437 10.6505 24.7453 10.6505 24.8697Z" fill="#C2C2C2"/>
<path d="M11.819 24.673C11.8407 24.7949 11.7142 24.9219 11.5326 24.9549C11.3549 24.9879 11.19 24.9117 11.1669 24.7898C11.1452 24.6642 11.2743 24.5385 11.4521 24.5055C11.6323 24.4737 11.796 24.5474 11.819 24.673Z" fill="#C2C2C2"/>
</svg>
