<svg width="20" height="20" viewBox="0 0 20 20" fill="none" xmlns="http://www.w3.org/2000/svg">
<g clip-path="url(#clip0_2505_137)">
<rect width="20" height="20" fill="#C2C2C2"/>
<path d="M6.02068 4.98003H8.36506V11.5513C8.36506 14.5125 6.94568 15.5463 4.67818 15.5463C4.12318 15.5463 3.41318 15.4538 2.95068 15.2994L3.21318 13.4019C3.53693 13.51 3.95381 13.5869 4.41631 13.5869C5.40381 13.5869 6.02068 13.1394 6.02068 11.5357V4.98003ZM10.4007 12.9707C11.0176 13.2944 12.0051 13.6188 13.0076 13.6188C14.0876 13.6188 14.6582 13.1713 14.6582 12.4775C14.6582 11.845 14.1644 11.4594 12.9151 11.0275C11.1876 10.4107 10.0463 9.4544 10.0463 7.9269C10.0463 6.15315 11.5426 4.81128 13.9794 4.81128C15.1669 4.81128 16.0157 5.04253 16.6326 5.33565L16.1082 7.21753C15.7069 7.0169 14.9513 6.72378 13.9488 6.72378C12.9307 6.72378 12.4369 7.2019 12.4369 7.72628C12.4369 8.3894 13.0076 8.68253 14.3651 9.2069C16.2007 9.88565 17.0488 10.8419 17.0488 12.3225C17.0488 14.0657 15.7226 15.5463 12.8688 15.5463C11.6813 15.5463 10.5088 15.2225 9.92256 14.8982L10.4007 12.9707Z" fill="#1A1A1A"/>
</g>
<defs>
<clipPath id="clip0_2505_137">
<rect width="20" height="20" fill="white"/>
</clipPath>
</defs>
</svg>
