<svg width="22" height="22" viewBox="0 0 22 22" fill="none" xmlns="http://www.w3.org/2000/svg">
<path d="M10.9996 0C6.78996 0 3.36523 3.42523 3.36523 7.63498C3.36523 11.6872 10.292 21.1547 10.587 21.5556L10.8622 21.9302C10.8944 21.9743 10.9457 22 10.9996 22C11.0544 22 11.1053 21.9743 11.1378 21.9302L11.4129 21.5556C11.708 21.1547 18.6346 11.6872 18.6346 7.63498C18.6346 3.42523 15.2094 0 10.9996 0ZM10.9996 4.90014C12.5079 4.90014 13.7344 6.12671 13.7344 7.63498C13.7344 9.14247 12.5079 10.3698 10.9996 10.3698C9.49217 10.3698 8.26477 9.14247 8.26477 7.63498C8.26477 6.12671 9.49211 4.90014 10.9996 4.90014Z" fill="#FF861A"/>
</svg>
